<svg width="32" height="32" viewBox="0 0 32 32" fill="none" xmlns="http://www.w3.org/2000/svg">
  <rect width="32" height="32" rx="8" fill="#6366F1"/>
  <circle cx="16" cy="16" r="10" fill="white" fill-opacity="0.1"/>
  <path d="M16 9.75C15.5858 9.75 15.25 10.0858 15.25 10.5V15.25H10.5C10.0858 15.25 9.75 15.5858 9.75 16C9.75 16.4142 10.0858 16.75 10.5 16.75H15.25V21.5C15.25 21.9142 15.5858 22.25 16 22.25C16.4142 22.25 16.75 21.9142 16.75 21.5V16.75H21.5C21.9142 16.75 22.25 16.4142 22.25 16C22.25 15.5858 21.9142 15.25 21.5 15.25H16.75V10.5C16.75 10.0858 16.4142 9.75 16 9.75Z" fill="white"/>
</svg>
