<svg width="512" height="512" viewBox="0 0 512 512" fill="none" xmlns="http://www.w3.org/2000/svg">
  <rect width="512" height="512" rx="128" fill="#6366F1"/>
  <circle cx="256" cy="256" r="160" fill="white" fill-opacity="0.1"/>
  <path d="M256 156C250.477 156 246 160.477 246 166V246H166C160.477 246 156 250.477 156 256C156 261.523 160.477 266 166 266H246V346C246 351.523 250.477 356 256 356C261.523 356 266 351.523 266 346V266H346C351.523 266 356 261.523 356 256C356 250.477 351.523 246 346 246H266V166C266 160.477 261.523 156 256 156Z" fill="white"/>
</svg>
